<svg width="50" height="50" viewBox="0 0 50 50" fill="none" xmlns="http://www.w3.org/2000/svg">
<path d="M34.375 21.875C31.9027 21.875 29.486 22.6081 27.4304 23.9816C25.3748 25.3551 23.7726 27.3074 22.8265 29.5915C21.8804 31.8755 21.6329 34.3889 22.1152 36.8136C22.5975 39.2384 23.788 41.4657 25.5362 43.2138C27.2843 44.962 29.5116 46.1525 31.9364 46.6348C34.3611 47.1171 36.8745 46.8696 39.1585 45.9235C41.4426 44.9774 43.3949 43.3752 44.7684 41.3196C46.1419 39.264 46.875 36.8473 46.875 34.375C46.8709 31.0611 45.5526 27.884 43.2093 25.5407C40.866 23.1974 37.6889 21.8791 34.375 21.875ZM43.6094 32.8125H40.5562C40.3533 30.4566 39.7076 28.1602 38.6531 26.0437C39.9474 26.7105 41.069 27.6692 41.9291 28.8439C42.7893 30.0186 43.3645 31.3773 43.6094 32.8125ZM31.3375 32.8125C31.6248 29.9887 32.6748 27.2962 34.375 25.0234C36.0759 27.296 37.1265 29.9885 37.4141 32.8125H31.3375ZM37.4156 35.9375C37.1277 38.7617 36.0766 41.4543 34.375 43.7266C32.6741 41.454 31.6235 38.7615 31.3359 35.9375H37.4156ZM30.0969 26.0437C29.0423 28.1602 28.3966 30.4566 28.1938 32.8125H25.1406C25.3855 31.3773 25.9607 30.0186 26.8209 28.8439C27.681 27.6692 28.8026 26.7105 30.0969 26.0437ZM25.1406 35.9375H28.1922C28.3951 38.2934 29.0407 40.5898 30.0953 42.7062C28.8013 42.0393 27.6801 41.0806 26.8202 39.9058C25.9603 38.7311 25.3853 37.3726 25.1406 35.9375ZM38.6531 42.7062C39.7078 40.5899 40.3535 38.2934 40.5562 35.9375H43.6094C43.3646 37.3728 42.7895 38.7315 41.9293 39.9062C41.0691 41.081 39.9475 42.0396 38.6531 42.7062ZM9.375 21.875H18.75V25H9.375V21.875ZM9.375 9.375H28.125V12.5H9.375V9.375ZM9.375 15.625H28.125V18.75H9.375V15.625ZM9.375 37.5H18.75V40.625H9.375V37.5Z" fill="#39393B"/>
<path d="M18.75 46.875H6.25C5.42145 46.8742 4.62708 46.5447 4.0412 45.9588C3.45533 45.3729 3.12583 44.5785 3.125 43.75V6.25C3.12583 5.42145 3.45533 4.62708 4.0412 4.0412C4.62708 3.45533 5.42145 3.12583 6.25 3.125H31.25C32.0785 3.12583 32.8729 3.45533 33.4588 4.0412C34.0447 4.62708 34.3742 5.42145 34.375 6.25V18.75H31.25V6.25H6.25V43.75H18.75V46.875Z" fill="#39393B"/>
</svg>
