<svg width="60" height="60" viewBox="0 0 60 60" fill="none" xmlns="http://www.w3.org/2000/svg">
<path fill-rule="evenodd" clip-rule="evenodd" d="M31.7293 0.00710245C27.2112 -0.087889 22.726 0.77096 18.5869 2.52369C14.4478 4.27642 10.7546 6.88078 7.76516 10.155C4.77567 13.4291 2.56195 17.2942 1.27854 21.4804C-0.00486266 25.6665 -0.327027 30.0728 0.334545 34.3917C0.996117 38.7106 2.62548 42.8379 5.10888 46.4855C7.59228 50.1331 10.8699 53.2132 14.7128 55.5106C18.5558 57.808 22.8714 59.2674 27.3586 59.7869C31.8457 60.3064 36.3961 59.8734 40.6922 58.5183C41.4262 58.2866 42.0349 57.7827 42.3843 57.1174C42.7337 56.4521 42.7953 55.68 42.5554 54.9708C42.3155 54.2617 41.7939 53.6737 41.1052 53.3361C40.4166 52.9986 39.6173 52.9391 38.8833 53.1708C34.2148 54.6435 29.2029 54.768 24.4622 53.5289C19.7216 52.2899 15.4583 49.7412 12.1952 46.1955C8.93206 42.6497 6.81102 38.2611 6.09216 33.5677C5.37331 28.8743 6.08789 24.0803 8.14828 19.7736C10.2087 15.4669 13.5253 11.8347 17.6914 9.32245C21.8575 6.81022 26.6919 5.52716 31.6019 5.63065C36.5118 5.73413 41.2837 7.21966 45.3324 9.90504C49.3811 12.5904 52.5306 16.3589 54.3946 20.7484C54.6875 21.4386 55.2522 21.9881 55.9645 22.2761C56.3172 22.4187 56.6956 22.4928 57.0779 22.4941C57.4602 22.4955 57.8391 22.4241 58.1929 22.284C58.5466 22.1439 58.8684 21.9378 59.1397 21.6776C59.4111 21.4174 59.6267 21.1081 59.7743 20.7673C59.9219 20.4266 59.9986 20.0611 60 19.6917C60.0014 19.3224 59.9275 18.9564 59.7824 18.6146C57.4884 13.2119 53.6121 8.57352 48.629 5.26823C43.6459 1.96293 37.7725 0.134473 31.7293 0.00710245ZM33.9613 14.0621C33.9613 13.3162 33.6546 12.6008 33.1086 12.0734C32.5626 11.5459 31.8221 11.2496 31.05 11.2496C30.2779 11.2496 29.5374 11.5459 28.9914 12.0734C28.4455 12.6008 28.1387 13.3162 28.1387 14.0621V28.8371L20.2433 36.4608C19.9573 36.7183 19.7279 37.0288 19.5688 37.3738C19.4097 37.7188 19.3241 38.0913 19.3172 38.4689C19.3103 38.8465 19.3822 39.2216 19.5286 39.5718C19.6751 39.922 19.893 40.2402 20.1694 40.5072C20.4459 40.7743 20.7752 40.9849 21.1377 41.1263C21.5002 41.2678 21.8885 41.3372 22.2794 41.3306C22.6703 41.3239 23.0558 41.2412 23.4129 41.0875C23.77 40.9338 24.0914 40.7122 24.358 40.4358L33.1073 31.9871L33.9613 31.1621V14.0621ZM58.222 56.2496C58.222 57.2442 57.813 58.198 57.0851 58.9012C56.3571 59.6045 55.3698 59.9996 54.3403 59.9996C53.3108 59.9996 52.3235 59.6045 51.5955 58.9012C50.8675 58.198 50.4586 57.2442 50.4586 56.2496C50.4586 55.255 50.8675 54.3012 51.5955 53.5979C52.3235 52.8947 53.3108 52.4996 54.3403 52.4996C55.3698 52.4996 56.3571 52.8947 57.0851 53.5979C57.813 54.3012 58.222 55.255 58.222 56.2496ZM57.2516 32.8121C57.2516 32.0662 56.9448 31.3508 56.3989 30.8234C55.8529 30.2959 55.1124 29.9996 54.3403 29.9996C53.5682 29.9996 52.8277 30.2959 52.2817 30.8234C51.7357 31.3508 51.429 32.0662 51.429 32.8121V45.9371C51.429 46.683 51.7357 47.3984 52.2817 47.9258C52.8277 48.4533 53.5682 48.7496 54.3403 48.7496C55.1124 48.7496 55.8529 48.4533 56.3989 47.9258C56.9448 47.3984 57.2516 46.683 57.2516 45.9371V32.8121Z" fill="#02575B"/>
</svg>
