<svg width="50" height="50" viewBox="0 0 50 50" fill="none" xmlns="http://www.w3.org/2000/svg">
<path d="M6.25 0H35C36.6576 0 38.2473 0.627124 39.4194 1.74341C40.5915 2.8597 41.25 4.37371 41.25 5.95238V22.1738C38.4012 21.2948 35.3528 21.1825 32.4413 21.8494C29.5297 22.5164 26.8683 23.9366 24.7509 25.9532C22.6334 27.9698 21.1422 30.5045 20.4419 33.2774C19.7416 36.0503 19.8595 38.9536 20.7825 41.6667H3.75C3.75 42.2981 4.01339 42.9037 4.48223 43.3503C4.95107 43.7968 5.58696 44.0476 6.25 44.0476H21.83C22.5458 45.3539 23.4532 46.5565 24.525 47.619H6.25C4.5924 47.619 3.00269 46.9919 1.83058 45.8756C0.65848 44.7593 0 43.2453 0 41.6667V5.95238C0 4.37371 0.65848 2.8597 1.83058 1.74341C3.00269 0.627124 4.5924 0 6.25 0ZM10 7.14286C9.33696 7.14286 8.70107 7.39371 8.23223 7.84022C7.76339 8.28674 7.5 8.89234 7.5 9.52381V11.9048C7.5 12.5362 7.76339 13.1418 8.23223 13.5883C8.70107 14.0349 9.33696 14.2857 10 14.2857H30C30.663 14.2857 31.2989 14.0349 31.7678 13.5883C32.2366 13.1418 32.5 12.5362 32.5 11.9048V9.52381C32.5 8.89234 32.2366 8.28674 31.7678 7.84022C31.2989 7.39371 30.663 7.14286 30 7.14286H10ZM50 36.9048C50 33.4317 48.5513 30.1009 45.9727 27.645C43.3941 25.1892 39.8967 23.8095 36.25 23.8095C32.6033 23.8095 29.1059 25.1892 26.5273 27.645C23.9487 30.1009 22.5 33.4317 22.5 36.9048C22.5 40.3778 23.9487 43.7087 26.5273 46.1645C29.1059 48.6203 32.6033 50 36.25 50C39.8967 50 43.3941 48.6203 45.9727 46.1645C48.5513 43.7087 50 40.3778 50 36.9048ZM34.785 31.1833L41.8 35.5643C42.0174 35.6972 42.1957 35.8805 42.3181 36.0971C42.4406 36.3137 42.5032 36.5564 42.5 36.8024C42.5003 37.0499 42.4386 37.294 42.32 37.5143C42.2081 37.7323 42.0372 37.9181 41.825 38.0524L34.8075 42.6119C34.6854 42.6902 34.5525 42.7519 34.4125 42.7952C34.0876 42.8941 33.7357 42.8745 33.425 42.7405C33.2459 42.6606 33.0827 42.5519 32.9425 42.419C32.8071 42.2786 32.6973 42.1177 32.6175 41.9429C32.5394 41.764 32.4995 41.5722 32.5 41.3786V32.431C32.4987 32.1445 32.5847 31.8638 32.7476 31.6229C32.9104 31.382 33.1431 31.1913 33.4175 31.0738C33.6355 30.9765 33.8763 30.9352 34.1162 30.954C34.3561 30.9728 34.5867 31.0511 34.785 31.181V31.1833Z" fill="#39393B"/>
</svg>
