<svg width="60" height="60" viewBox="0 0 60 60" fill="none" xmlns="http://www.w3.org/2000/svg">
<path d="M11.25 45C11.9917 45 12.7167 45.2199 13.3334 45.632C13.9501 46.044 14.4307 46.6297 14.7146 47.3149C14.9984 48.0002 15.0726 48.7542 14.9279 49.4816C14.7833 50.209 14.4261 50.8772 13.9017 51.4017C13.3772 51.9261 12.709 52.2833 11.9816 52.4279C11.2542 52.5726 10.5002 52.4984 9.81494 52.2146C9.12972 51.9307 8.54405 51.4501 8.13199 50.8334C7.71994 50.2167 7.5 49.4917 7.5 48.75C7.5 47.7554 7.89509 46.8016 8.59835 46.0984C9.30161 45.3951 10.2554 45 11.25 45ZM11.25 41.25C9.76664 41.25 8.3166 41.6899 7.08323 42.514C5.84986 43.3381 4.88856 44.5094 4.32091 45.8799C3.75325 47.2503 3.60472 48.7583 3.89411 50.2132C4.1835 51.668 4.89781 53.0044 5.9467 54.0533C6.9956 55.1022 8.33197 55.8165 9.78683 56.1059C11.2417 56.3953 12.7497 56.2468 14.1201 55.6791C15.4906 55.1114 16.6619 54.1501 17.486 52.9168C18.3101 51.6834 18.75 50.2334 18.75 48.75C18.75 46.7609 17.9598 44.8532 16.5533 43.4467C15.1468 42.0402 13.2391 41.25 11.25 41.25ZM30 7.5C30.7417 7.5 31.4667 7.71993 32.0834 8.13199C32.7001 8.54404 33.1807 9.12971 33.4646 9.81494C33.7484 10.5002 33.8226 11.2542 33.6779 11.9816C33.5333 12.709 33.1761 13.3772 32.6517 13.9017C32.1272 14.4261 31.459 14.7833 30.7316 14.9279C30.0042 15.0726 29.2502 14.9984 28.5649 14.7145C27.8797 14.4307 27.2941 13.9501 26.882 13.3334C26.4699 12.7167 26.25 11.9917 26.25 11.25C26.25 10.2554 26.6451 9.30161 27.3484 8.59835C28.0516 7.89509 29.0054 7.5 30 7.5ZM30 3.75C28.5166 3.75 27.0666 4.18987 25.8332 5.01398C24.5999 5.83809 23.6386 7.00943 23.0709 8.37987C22.5033 9.75032 22.3547 11.2583 22.6441 12.7132C22.9335 14.168 23.6478 15.5044 24.6967 16.5533C25.7456 17.6022 27.082 18.3165 28.5368 18.6059C29.9917 18.8953 31.4997 18.7468 32.8701 18.1791C34.2406 17.6114 35.4119 16.6501 36.236 15.4168C37.0601 14.1834 37.5 12.7334 37.5 11.25C37.5 9.26088 36.7098 7.35322 35.3033 5.9467C33.8968 4.54018 31.9891 3.75 30 3.75ZM48.75 7.5C49.4917 7.5 50.2167 7.71993 50.8334 8.13199C51.4501 8.54404 51.9307 9.12971 52.2146 9.81494C52.4984 10.5002 52.5726 11.2542 52.428 11.9816C52.2833 12.709 51.9261 13.3772 51.4017 13.9017C50.8772 14.4261 50.209 14.7833 49.4816 14.9279C48.7542 15.0726 48.0002 14.9984 47.3149 14.7145C46.6297 14.4307 46.0441 13.9501 45.632 13.3334C45.2199 12.7167 45 11.9917 45 11.25C45 10.2554 45.3951 9.30161 46.0984 8.59835C46.8016 7.89509 47.7554 7.5 48.75 7.5ZM48.75 3.75C47.2666 3.75 45.8166 4.18987 44.5832 5.01398C43.3499 5.83809 42.3886 7.00943 41.8209 8.37987C41.2533 9.75032 41.1047 11.2583 41.3941 12.7132C41.6835 14.168 42.3978 15.5044 43.4467 16.5533C44.4956 17.6022 45.832 18.3165 47.2868 18.6059C48.7417 18.8953 50.2497 18.7468 51.6201 18.1791C52.9906 17.6114 54.1619 16.6501 54.986 15.4168C55.8101 14.1834 56.25 12.7334 56.25 11.25C56.25 9.26088 55.4598 7.35322 54.0533 5.9467C52.6468 4.54018 50.7391 3.75 48.75 3.75ZM33.75 45V52.5H26.25V45H33.75ZM37.5 41.25H22.5V56.25H37.5V41.25Z" fill="#02575B"/>
<path d="M50.625 41.5125V31.875C50.625 30.8804 50.2299 29.9266 49.5266 29.2233C48.8234 28.5201 47.8696 28.125 46.875 28.125H13.125V18.75H18.75V3.75H3.75V18.75H9.375V28.125C9.375 29.1196 9.77009 30.0734 10.4733 30.7766C11.1766 31.4799 12.1304 31.875 13.125 31.875H46.875V41.5125C45.1075 41.9689 43.5671 43.0542 42.5426 44.565C41.5181 46.0758 41.0798 47.9085 41.3098 49.7194C41.5398 51.5303 42.4224 53.1951 43.7921 54.4019C45.1618 55.6086 46.9245 56.2743 48.75 56.2743C50.5755 56.2743 52.3382 55.6086 53.7079 54.4019C55.0776 53.1951 55.9602 51.5303 56.1902 49.7194C56.4202 47.9085 55.9819 46.0758 54.9574 44.565C53.9329 43.0542 52.3925 41.9689 50.625 41.5125V41.5125ZM7.5 7.5H15V15H7.5V7.5ZM48.75 52.5C48.0083 52.5 47.2833 52.2801 46.6666 51.868C46.0499 51.456 45.5693 50.8703 45.2855 50.1851C45.0016 49.4998 44.9274 48.7458 45.0721 48.0184C45.2167 47.291 45.5739 46.6228 46.0984 46.0983C46.6228 45.5739 47.291 45.2167 48.0184 45.0721C48.7458 44.9274 49.4998 45.0016 50.1851 45.2854C50.8703 45.5693 51.456 46.0499 51.868 46.6666C52.2801 47.2833 52.5 48.0083 52.5 48.75C52.5 49.7446 52.1049 50.6984 51.4016 51.4016C50.6984 52.1049 49.7446 52.5 48.75 52.5Z" fill="#02575B"/>
</svg>
